<?xml version="1.0" encoding="UTF-8"?>
<svg width="1920px" height="336px" viewBox="0 0 1920 336" version="1.1" xmlns="http://www.w3.org/2000/svg" xmlns:xlink="http://www.w3.org/1999/xlink">
    <defs>
        <path d="M31.8935197,119.482491 C31.8935197,119.482491 180.768598,28.6975439 307.515458,119.040626 C434.262317,209.383708 570.975479,116.631964 570.975479,116.631964 C570.975479,116.631964 806.485122,-18.445563 1000.28358,110.960812 C1194.08203,240.367187 1418.50781,147.527344 1514.37109,93.9023437 C1610.23438,40.2773437 1787.39063,17.7890625 1953.48047,108.054687 C2119.57031,198.320312 2170.87109,122.328125 2170.87109,122.328125 L2169.5,414.078125 L33.5703125,431.484375 L31.8935197,119.482491 Z" id="path-1"></path>
        <path d="M2166.67969,198.914062 C2166.67969,198.914062 2152.22656,120.734375 1965.17969,194.460938 C1778.13281,268.1875 1657.74339,158.849557 1593.25781,123.15625 C1528.77224,87.4629432 1310.19478,-39.2115547 1071.20481,89.3610195 C832.214844,217.933594 673.671875,102.84375 673.671875,102.84375 C673.671875,102.84375 496.414062,-51.1640625 298.52751,74.4119022 C100.640957,199.987867 0.3359375,104.558594 0.3359375,104.558594 L6.078125,352.835937 L2170.73974,356.228516 L2166.67969,198.914062 Z" id="path-2"></path>
        <path d="M42.8476562,117.277344 C42.8476562,117.277344 224.840877,19.1563251 409.945829,115.328163 C595.050781,211.5 786.207031,73.46875 786.207031,73.46875 C786.207031,73.46875 995.269531,-105.441406 1274.99572,103.062901 C1554.72192,311.567207 1672.47281,119.377225 1708.86141,91.8214249 C1745.25,64.265625 1900.98686,-94.3242553 2144.13281,85.46875 L2152.27554,419.25273 L44.0703125,419.609375 L42.8476562,117.277344 Z" id="path-3"></path>
    </defs>
    <g id="Page-1" stroke="none" stroke-width="1" fill="none" fill-rule="evenodd">
        <g id="Desktop-HD-Copy" transform="translate(0.000000, -688.000000)">
            <g id="Footer" transform="translate(-152.000000, 449.000000)">
                <g id="Group" transform="translate(0.000000, 239.000000)">
                    <g id="Path-2">
                        <use fill-opacity="0.03" fill="#39B683" fill-rule="evenodd" xlink:href="#path-1"></use>
                        <path stroke-opacity="0.1" stroke="#39B683" stroke-width="1" d="M32.3950415,119.764306 L34.0676107,430.980306 L2169.00233,413.582164 L2170.36404,123.826878 C2170.33731,123.860184 2170.31018,123.893844 2170.28267,123.927854 C2169.44541,124.962839 2168.41901,126.114352 2167.19577,127.353125 C2163.70741,130.885765 2159.33937,134.415852 2154.03033,137.708814 C2137.14888,148.179638 2114.83255,153.938562 2086.45337,152.535033 C2049.59859,150.712334 2005.40863,136.845399 1953.24171,108.494 C1875.50929,66.2483958 1791.04102,46.3907851 1707.59758,47.5194855 C1634.46617,48.5087 1565.43788,65.9089846 1514.61519,94.3387101 C1486.42908,110.105754 1454.73712,125.089498 1421.03262,137.856129 C1379.45022,153.606758 1336.87219,165.201921 1294.12662,171.562898 C1187.69541,187.400948 1087.86901,170.04606 1000.00592,111.376632 C971.98606,92.6667391 942.164637,78.864678 910.77599,69.6300522 C863.527366,55.7293778 813.585513,52.3755036 762.107994,57.9020141 C720.630285,62.3549677 679.934241,72.3531489 641.180637,86.2273349 C622.331957,92.9753546 605.173071,100.205215 590.039011,107.434579 C584.743094,109.964376 580.078915,112.313197 576.088341,114.42074 C574.692283,115.158041 573.480317,115.812413 572.457676,116.37632 C572.100092,116.573499 571.791801,116.745236 571.533457,116.890587 C571.378913,116.977538 571.275624,117.036219 571.256193,117.045727 C571.132807,117.129438 570.891348,117.289943 570.534536,117.522124 C569.941507,117.908014 569.238568,118.355335 568.42844,118.858967 C566.115795,120.296668 563.407053,121.898142 560.323962,123.622423 C551.518267,128.547187 541.476469,133.471318 530.372444,138.066984 C502.903448,149.435688 473.615348,156.916886 443.475414,158.6837 C405.303276,160.921365 368.222354,153.785797 333.211382,135.449606 C324.375372,130.821949 315.70945,125.495185 307.225244,119.447782 C291.390626,108.161126 274.75059,99.3769002 257.396676,92.9474264 C225.368822,81.0813856 191.486992,77.3995008 156.573684,80.5928042 C128.651148,83.1467051 101.347911,89.9564254 75.4920585,99.7102564 C63.7729299,104.131167 53.132595,108.867676 43.7702758,113.603638 C40.4945106,115.260695 37.6128481,116.799086 35.1501789,118.179281 C34.2889126,118.661975 33.5417194,119.090301 32.9117099,119.459318 C32.7006364,119.582951 32.5282317,119.684902 32.3950415,119.764306 Z"></path>
                    </g>
                    <g id="Path-2-Copy">
                        <use fill-opacity="0.03" fill="#39B683" fill-rule="evenodd" xlink:href="#path-2"></use>
                        <path stroke-opacity="0.1" stroke="#39B683" stroke-width="1" d="M2166.18092,198.968312 C2166.16697,198.898759 2166.14174,198.78403 2166.10349,198.626663 C2166.02556,198.305987 2165.92281,197.932469 2165.79223,197.510514 C2165.41726,196.298847 2164.89491,194.946117 2164.20118,193.487479 C2162.2146,189.310451 2159.2541,185.130019 2155.12631,181.22502 C2143.70099,170.416359 2125.69944,163.760967 2099.67373,163.331225 C2066.25467,162.779403 2021.95666,172.619114 1965.36304,194.926107 C1903.53389,219.296738 1845.57448,225.181278 1789.95074,215.632762 C1745.87208,208.066102 1705.87889,191.687498 1662.5613,166.429137 C1650.99226,159.683258 1642.2963,154.262928 1624.2206,142.725332 C1607.53195,132.073081 1600.77613,127.889185 1593.01568,123.593708 C1555.99624,103.103142 1541.11614,95.3313011 1512.7257,82.9111565 C1450.79916,55.8197665 1387.05851,38.4492901 1320.44145,34.383939 C1235.85071,29.221732 1152.45511,46.2174921 1071.4417,89.801343 C997.10321,129.794197 925.908474,148.889577 858.628153,150.597834 C806.666729,151.917142 760.155187,142.878465 719.860144,126.9982 C706.688732,121.80735 695.155381,116.245036 685.340516,110.681627 C681.903531,108.733424 678.926364,106.923838 676.419065,105.299155 C675.540538,104.729886 674.783252,104.224201 674.148463,103.787885 C673.766259,103.52518 673.509068,103.343416 673.343943,103.221189 C673.30162,103.184418 673.216061,103.110882 673.087694,103.001767 C672.872869,102.819162 672.616093,102.603349 672.317796,102.355514 C671.464408,101.646493 670.450076,100.823614 669.278232,99.8963646 C665.928013,97.2454243 661.988889,94.290812 657.488323,91.1084225 C644.626419,82.0136577 629.847927,72.918106 613.37271,64.4287728 C571.437619,42.8205024 525.947223,28.8372619 478.215764,26.1054213 C417.601992,22.6362802 357.362826,37.6680336 298.795413,74.8340726 C235.65752,114.900473 178.40419,135.198307 127.068263,139.089945 C87.8522139,142.062809 54.6218632,135.364165 27.4135078,122.368067 C19.4368332,118.558 12.5908389,114.474702 6.87773021,110.38979 C4.87606394,108.958585 3.15845533,107.628823 1.72516702,106.434436 C1.40955741,106.171432 1.12200078,105.926781 0.862505229,105.701532 L6.56671235,352.336703 L2170.22665,355.727711 L2166.18092,198.968312 Z"></path>
                    </g>
                    <g id="Path-2-Copy-2">
                        <use fill-opacity="0.03" fill="#39B683" fill-rule="evenodd" xlink:href="#path-3"></use>
                        <path stroke-opacity="0.1" stroke="#39B683" stroke-width="1" d="M43.3488726,117.577106 L44.5682942,419.109291 L2151.76319,418.752817 L2143.63893,85.7254552 C2063.32643,26.3871628 1987.75805,0.18753235 1916.79244,1.45833369 C1861.51479,2.4482064 1812.31369,19.7159114 1766.80737,48.7465478 C1754.47736,56.6124452 1743.15428,64.8549741 1731.29709,74.2932532 C1727.127,77.6126291 1711.97999,90.0870183 1709.16326,92.2200306 C1704.93458,95.4222622 1705.00972,95.3473229 1687.90021,112.933694 C1675.40205,125.780203 1665.90331,134.868816 1654.69881,144.204532 C1636.30195,159.533003 1617.11586,171.947641 1596.08868,181.267171 C1571.0008,192.386457 1544.09766,198.679138 1514.96487,199.427936 C1445.37254,201.216661 1365.88162,171.431699 1274.69691,103.463786 C1187.27894,38.3035569 1101.34814,6.68068321 1018.27796,2.92241615 C954.326106,0.0291017764 895.990574,13.677099 844.653596,38.2087169 C828.329263,46.009377 813.92936,54.3667151 801.590596,62.723003 C797.273503,65.6467053 793.522871,68.3610151 790.355783,70.7961961 C789.248175,71.6478387 788.292849,72.4035534 787.491941,73.0546221 C787.212078,73.282127 786.971618,73.480202 786.770829,73.6477574 C786.650969,73.7477786 786.571313,73.8151011 786.49974,73.8741158 C786.447147,73.9120926 786.34382,73.9859798 786.190371,74.094619 C785.935437,74.2751084 785.631609,74.4880325 785.279501,74.7322328 C784.274502,75.4292378 783.083745,76.2374439 781.712136,77.1475837 C777.795175,79.7467074 773.213714,82.6423282 768.006994,85.7603035 C753.133514,94.6670906 736.230245,103.573269 717.610972,111.885596 C676.335064,130.312677 632.728201,143.150376 588.109088,147.901876 C532.261735,153.849074 478.047236,146.710689 426.794363,123.987531 C421.054319,121.442661 415.360821,118.704995 409.715309,115.771852 C353.401891,86.5140459 293.968796,73.3451395 233.049367,73.5879346 C185.602229,73.7770357 139.944859,82.025868 97.7185012,95.6568345 C82.7618291,100.484954 69.3096658,105.657652 57.573431,110.82978 C53.4669647,112.639489 49.8686934,114.319637 46.805039,115.827073 C45.7334771,116.354323 44.8054711,116.822216 44.0243233,117.225357 C43.7436764,117.370196 43.5182883,117.487834 43.3488726,117.577106 Z"></path>
                    </g>
                </g>
            </g>
        </g>
    </g>
</svg>
