<?xml version="1.0" encoding="UTF-8"?>
<svg width="16px" height="15px" viewBox="0 0 16 15" version="1.1" xmlns="http://www.w3.org/2000/svg" xmlns:xlink="http://www.w3.org/1999/xlink">
    <g id="Page-1" stroke="none" stroke-width="1" fill="none" fill-rule="evenodd">
        <g id="Love_Heart_SVG" fill-rule="nonzero" fill="#fb5676">
            <path d="M7.37091969,13.575494 C7.02708094,13.1901881 6.16853167,12.4390278 5.46303326,11.9062495 C3.37269691,10.32767 3.08820168,10.0992175 2.23948176,9.31771307 C0.674813354,7.87696 0.0103244181,6.42947544 0.0126015051,4.46680162 C0.0137125591,3.5087024 0.0790169161,3.13957666 0.347325654,2.57482633 C0.802531869,1.61668061 1.47307322,0.904703076 2.33036011,0.469253217 C2.93754633,0.160840562 3.23700967,0.0238178995 4.25096986,0.0182121335 C5.3116448,0.0123504424 5.53492942,0.136021142 6.15885654,0.478788368 C6.91828268,0.895994434 7.69994608,1.78763599 7.86152686,2.42101841 L7.96132343,2.81221716 L8.20742964,2.27344629 C9.59816087,-0.771119775 14.0382779,-0.725569048 15.5834618,2.34911775 C16.0736377,3.32449498 16.1274529,5.4071688 15.692794,6.58032824 C15.1257982,8.11067133 14.0608437,9.27737735 11.599032,11.0652351 C9.98453417,12.237744 8.15729123,14.0117776 8.03009173,14.2609425 C7.88243544,14.5501788 8.02304874,14.3062692 7.37091969,13.575494 Z" id="path2417"></path>
        </g>
    </g>
</svg>
